<svg width="14" height="13" viewBox="0 0 14 13" fill="none" xmlns="http://www.w3.org/2000/svg">
<path d="M1.646 0.703613C0.736857 0.703613 0 1.41318 0 2.28865V7.78524C0 8.66071 0.736857 9.37028 1.646 9.37028H4.09065C4.03111 9.05802 4 8.73617 4 8.40732H3.75V1.66658H10.354C10.7109 1.66658 11 1.94501 11 2.28865V3.31031C11.3486 3.40524 11.6832 3.53244 12 3.68835V2.28865C12 1.41318 11.2631 0.703613 10.354 0.703613H1.646ZM2.75 1.66658V8.40732H1.646C1.28914 8.40732 1 8.12888 1 7.78524V2.28865C1 1.94501 1.28914 1.66658 1.646 1.66658H2.75Z" fill="#01B2AA"/>
<path d="M9.4999 7.5185C8.9899 7.5185 8.57689 7.91621 8.57689 8.40732C8.57689 8.89843 8.9899 9.29613 9.4999 9.29613C10.0099 9.29613 10.4229 8.89843 10.4229 8.40732C10.4229 7.91621 10.0099 7.5185 9.4999 7.5185Z" fill="#01B2AA"/>
<path d="M9.5 12.7406C11.985 12.7406 14 10.8003 14 8.40732C14 6.01435 11.985 4.07398 9.5 4.07398C7.015 4.07398 5 6.01435 5 8.40732C5 10.8003 7.015 12.7406 9.5 12.7406ZM9.5029 5.51843C9.7289 5.52132 9.9539 5.54635 10.1739 5.59354C10.2699 5.61376 10.3419 5.69176 10.3529 5.78613L10.4049 6.23872C10.4289 6.44672 10.6109 6.60369 10.8279 6.60369C10.8859 6.60369 10.9439 6.59213 10.9979 6.56902L11.4289 6.38702C11.5189 6.34947 11.6229 6.36969 11.6899 6.43902C12.0009 6.75969 12.2329 7.14391 12.3679 7.5628C12.3969 7.65332 12.3639 7.75154 12.2849 7.80739L11.9029 8.07895C11.7939 8.15598 11.7299 8.27828 11.7299 8.40828C11.7299 8.53828 11.7939 8.66058 11.9039 8.73858L12.2859 9.01013C12.3649 9.06598 12.3989 9.16421 12.3699 9.25472C12.2349 9.67361 12.0029 10.0578 11.6919 10.3785C11.6249 10.4469 11.5199 10.4681 11.4309 10.4305L10.9979 10.2475C10.8739 10.1955 10.7319 10.2032 10.6149 10.2678C10.4979 10.3332 10.4199 10.4478 10.4049 10.5769L10.3529 11.0295C10.3419 11.1229 10.2719 11.1999 10.1769 11.2211C9.7309 11.3232 9.2669 11.3232 8.8209 11.2211C8.7259 11.1989 8.6559 11.1229 8.6449 11.0295L8.5929 10.5778C8.5779 10.4488 8.4999 10.3342 8.3829 10.2697C8.2659 10.2052 8.1239 10.1975 8.0009 10.2495L7.56789 10.4324C7.4779 10.47 7.3739 10.4498 7.3069 10.3804C6.9959 10.0598 6.7639 9.67554 6.62889 9.25569C6.5999 9.16517 6.6339 9.06695 6.7129 9.01109L7.09589 8.73954C7.2049 8.6625 7.2689 8.54021 7.2689 8.41021C7.2689 8.28021 7.2049 8.15791 7.09589 8.07991L6.71389 7.80932C6.6349 7.75346 6.6009 7.65524 6.6299 7.56472C6.7649 7.14583 6.99689 6.76161 7.30789 6.44095C7.3749 6.37258 7.4799 6.35139 7.5689 6.38895L7.9999 6.57095C8.1239 6.62295 8.26589 6.61524 8.38389 6.54976C8.5009 6.48428 8.5789 6.36969 8.59389 6.23969L8.6459 5.78806C8.6569 5.69369 8.7289 5.61665 8.8249 5.59546C9.0459 5.54828 9.2709 5.52324 9.5019 5.52035L9.5029 5.51843Z" fill="#01B2AA"/>
</svg>
